<?xml version="1.0" encoding="UTF-8" standalone="no"?>
<!DOCTYPE svg PUBLIC "-//W3C//DTD SVG 1.1//EN" "http://www.w3.org/Graphics/SVG/1.1/DTD/svg11.dtd">
<svg xmlns="http://www.w3.org/2000/svg" version="1.1" viewBox="0 0 80 80">
<path fill="#000000" d="M 31.75,2.96 Q 31.17,3.04 30.75,3.46 L 5.80,3.73 Q 3.15,3.76 2.61,6.26 Q 1.99,9.11 2.04,13.00 Q 2.25,28.00 2.25,44.22 A 0.78,0.78 87.6 0 0 3.03,45.00 L 31.50,44.96 L 37.50,44.71 L 76.92,44.98 A 0.82,0.82 45.0 0 0 77.75,44.15 L 77.50,6.44 Q 77.49,3.75 74.76,3.75 L 37.50,3.79 Q 34.67,4.31 32.50,2.71 L 33.27,1.71 A 1.04,0.95 -69.5 0 1 34.05,1.31 Q 63.32,1.15 73.25,1.25 Q 77.93,1.30 80.00,5.56 Q 80.00,19.94 80.00,34.31 Q 79.78,34.85 79.53,35.37 A 1.49,0.99 -8.4 0 1 78.85,35.98 Q 77.95,36.39 78.37,37.14 Q 78.49,37.36 79.17,37.78 Q 79.73,38.13 80.00,38.81 Q 80.00,47.94 80.00,57.06 Q 78.95,58.68 77.50,59.90 Q 76.21,60.99 74.14,61.07 Q 63.55,61.48 52.95,61.68 A 0.67,0.62 5.5 0 0 52.32,62.16 Q 51.71,64.90 52.17,69.00 A 1.11,1.10 87.3 0 0 53.24,69.98 Q 60.78,70.12 59.85,78.04 A 1.01,0.91 -85.6 0 1 58.91,78.93 L 50.56,78.75 A 0.74,0.58 80.6 0 1 49.96,78.20 Q 49.75,77.40 49.25,76.79 Q 52.30,75.91 56.32,76.34 A 1.15,1.15 89.2 0 0 57.58,75.04 Q 57.19,72.28 54.96,72.44 Q 54.14,72.50 54.02,72.50 Q 39.66,72.46 25.31,72.55 Q 23.76,72.57 23.03,73.24 Q 21.88,74.31 22.59,75.98 A 0.76,0.73 -12.4 0 0 23.31,76.42 Q 33.28,76.13 43.25,76.25 Q 46.34,76.29 47.75,76.79 Q 46.96,77.27 46.75,78.19 A 0.65,0.57 -83.5 0 1 46.19,78.70 L 31.75,79.21 Q 26.75,78.06 21.75,79.21 Q 20.27,79.19 20.00,77.50 Q 18.87,70.37 26.76,69.95 A 1.28,1.24 -1.7 0 0 27.97,68.71 L 27.99,62.38 A 0.73,0.71 -86.9 0 0 27.36,61.66 L 22.81,61.20 A 0.84,0.65 -2.7 0 1 22.13,60.72 Q 21.87,59.92 22.00,59.04 L 74.22,59.00 Q 77.47,59.00 77.55,55.97 L 77.75,48.29 Q 79.01,48.12 78.31,47.19 Q 77.38,45.95 76.96,47.50 L 2.81,47.44 A 0.53,0.52 0.6 0 0 2.28,47.95 Q 2.15,51.87 2.38,55.24 Q 2.51,57.13 3.34,58.01 Q 4.49,59.22 6.38,59.11 Q 8.03,59.02 8.13,59.02 Q 13.94,59.13 19.75,58.79 L 19.54,60.44 A 0.72,0.65 -1.5 0 1 18.94,61.01 Q 15.47,61.54 11.97,61.57 Q 6.17,61.63 5.54,61.52 Q 1.99,60.95 0.00,57.44 Q 0.00,31.31 0.00,5.19 Q 2.18,1.35 6.75,1.32 Q 17.13,1.25 27.52,1.25 Q 27.60,1.25 28.97,1.12 Q 31.00,0.94 31.75,2.96 ZM 30.29,64.50 L 30.29,69.44 A 0.53,0.50 0.0 0 0 30.82,69.94 L 49.22,70.00 A 0.52,0.51 -0.5 0 0 49.74,69.48 L 49.71,64.50 L 49.74,62.02 A 0.53,0.52 -0.0 0 0 49.21,61.50 L 31.06,61.56 A 0.70,0.66 7.8 0 0 30.40,62.03 Q 30.04,63.23 30.29,64.50 Z"/>
<path fill="#1173b9" d="M 32.50,2.71 Q 34.67,4.31 37.50,3.79 Q 37.59,4.25 38.50,4.75 Q 45.53,8.56 52.59,12.55 A 2.08,2.08 19.2 0 1 53.62,14.68 Q 53.36,16.36 54.25,17.29 L 54.25,18.71 Q 52.98,21.13 54.29,23.50 L 54.25,25.21 Q 53.02,27.38 54.25,29.54 L 54.21,31.50 Q 53.46,32.35 53.54,34.67 A 1.28,1.22 -16.4 0 1 52.90,35.78 L 40.17,43.24 Q 39.79,43.46 39.26,43.51 Q 38.07,43.64 37.50,44.71 L 31.50,44.96 Q 31.32,44.21 30.75,44.04 Q 29.87,43.78 29.81,43.75 Q 24.18,40.51 18.54,37.30 Q 18.43,37.24 16.77,36.49 Q 14.52,35.48 14.64,32.91 Q 14.72,31.19 14.72,31.08 Q 14.44,22.53 14.73,14.00 A 0.93,0.93 -14.5 0 1 15.18,13.24 Q 20.93,9.73 30.75,4.50 Q 31.86,3.91 30.75,3.46 Q 31.17,3.04 31.75,2.96 L 32.50,2.71 ZM 42.50,11.54 L 41.50,11.21 Q 41.53,10.38 40.84,9.90 Q 38.44,8.24 34.91,6.49 A 1.29,1.26 43.0 0 0 33.70,6.52 L 19.92,14.39 A 2.17,2.09 78.0 0 0 18.87,16.08 Q 18.24,24.63 18.84,32.69 A 1.79,1.70 13.7 0 0 19.71,34.05 L 33.40,41.99 A 1.75,1.67 44.6 0 0 35.11,42.02 L 49.02,34.05 A 1.95,1.94 75.1 0 0 50.00,32.36 L 50.00,16.01 A 1.17,1.10 -70.4 0 0 49.63,15.16 Q 46.55,12.41 42.50,11.54 Z"/>
<path fill="#40a2e7" d="M 30.75,3.46 Q 31.86,3.91 30.75,4.50 Q 20.93,9.73 15.18,13.24 A 0.93,0.93 -14.5 0 0 14.73,14.00 Q 14.44,22.53 14.72,31.08 Q 14.72,31.19 14.64,32.91 Q 14.52,35.48 16.77,36.49 Q 18.43,37.24 18.54,37.30 Q 24.18,40.51 29.81,43.75 Q 29.87,43.78 30.75,44.04 Q 31.32,44.21 31.50,44.96 L 3.03,45.00 A 0.78,0.78 85.2 0 1 2.25,44.22 Q 2.25,28.00 2.04,13.00 Q 1.99,9.11 2.61,6.26 Q 3.15,3.76 5.80,3.73 L 30.75,3.46 ZM 9.94,39.79 L 9.06,39.96 A 1.39,1.12 7.2 0 0 8.25,40.46 Q 7.23,41.92 9.25,41.95 Q 11.75,42.00 14.26,42.00 A 1.00,0.83 13.3 0 0 15.06,41.60 Q 15.80,40.40 13.81,39.89 A 1.09,1.08 -82.8 0 1 13.00,38.84 Q 13.00,24.41 13.00,9.59 Q 13.00,9.18 13.15,8.95 Q 13.40,8.58 13.78,8.60 A 1.24,0.22 5.6 0 0 14.70,8.53 Q 15.70,7.90 15.18,6.75 A 0.83,0.78 -11.7 0 0 14.44,6.29 L 9.07,6.29 A 0.97,0.88 14.3 0 0 8.27,6.71 Q 7.28,8.35 10.00,8.90 A 0.62,0.62 -84.3 0 1 10.50,9.51 L 10.44,39.19 A 0.62,0.61 -5.8 0 1 9.94,39.79 Z"/>
<path fill="#40a2e7" d="M 37.50,44.71 Q 38.07,43.64 39.26,43.51 Q 39.79,43.46 40.17,43.24 L 52.90,35.78 A 1.28,1.22 -16.4 0 0 53.54,34.67 Q 53.46,32.35 54.21,31.50 Q 57.83,31.81 61.45,31.60 Q 61.51,31.60 62.68,31.60 Q 64.64,31.60 63.80,29.87 A 0.96,0.86 -8.1 0 0 63.07,29.38 Q 58.65,28.93 54.25,29.54 Q 53.02,27.38 54.25,25.21 Q 55.25,25.28 56.22,25.43 Q 58.38,25.77 58.50,24.00 A 0.74,0.71 14.2 0 0 58.05,23.28 Q 56.15,22.44 54.29,23.50 Q 52.98,21.13 54.25,18.71 Q 55.00,18.89 58.00,19.00 Q 60.26,19.08 59.94,17.41 A 0.77,0.70 0.5 0 0 59.32,16.84 Q 56.73,16.38 54.25,17.29 Q 53.36,16.36 53.62,14.68 A 2.08,2.08 19.2 0 0 52.59,12.55 Q 45.53,8.56 38.50,4.75 Q 37.59,4.25 37.50,3.79 L 74.76,3.75 Q 77.49,3.75 77.50,6.44 L 77.75,44.15 A 0.82,0.82 -45.0 0 1 76.92,44.98 L 37.50,44.71 ZM 73.50,17.80 A 1.04 1.04 0.0 0 0 72.46,16.76 L 63.28,16.76 A 1.04 1.04 0.0 0 0 62.24,17.80 L 62.24,17.96 A 1.04 1.04 0.0 0 0 63.28,19.00 L 72.46,19.00 A 1.04 1.04 0.0 0 0 73.50,17.96 L 73.50,17.80 ZM 73.4797,24.0686 A 1.07 1.07 0.0 0 0 72.4041,23.0042 L 66.3642,23.0358 A 1.07 1.07 0.0 0 0 65.2998,24.1114 L 65.3003,24.1914 A 1.07 1.07 0.0 0 0 66.3759,25.2558 L 72.4158,25.2242 A 1.07 1.07 0.0 0 0 73.4802,24.1486 L 73.4797,24.0686 ZM 61.93,25.37 Q 63.02,25.40 63.17,24.32 A 0.73,0.66 15.3 0 0 62.72,23.61 Q 60.06,22.50 61.20,24.86 A 0.90,0.79 76.0 0 0 61.93,25.37 ZM 68.61,30.57 Q 68.70,28.45 66.69,29.50 A 0.82,0.81 -15.1 0 0 66.25,30.25 Q 66.34,32.63 68.17,31.36 A 1.05,1.04 -16.0 0 0 68.61,30.57 Z"/>
<path fill="#000000" d="M 10.44,39.19 L 10.50,9.51 A 0.62,0.62 -84.3 0 0 10.00,8.90 Q 7.28,8.35 8.27,6.71 A 0.97,0.88 14.3 0 1 9.07,6.29 L 14.44,6.29 A 0.83,0.78 -11.7 0 1 15.18,6.75 Q 15.70,7.90 14.70,8.53 A 1.24,0.22 5.6 0 1 13.78,8.60 Q 13.40,8.58 13.15,8.95 Q 13.00,9.18 13.00,9.59 Q 13.00,24.41 13.00,38.84 A 1.09,1.08 -82.8 0 0 13.81,39.89 Q 15.80,40.40 15.06,41.60 A 1.00,0.83 13.3 0 1 14.26,42.00 Q 11.75,42.00 9.25,41.95 Q 7.23,41.92 8.25,40.46 A 1.39,1.12 7.2 0 1 9.06,39.96 L 9.94,39.79 A 0.62,0.61 -5.8 0 0 10.44,39.19 Z"/>
<path fill="#000000" d="M 41.50,11.21 Q 40.01,12.36 38.46,11.35 Q 37.24,10.54 35.31,9.31 A 1.51,1.45 46.1 0 0 33.77,9.25 L 22.92,15.49 A 0.31,0.31 46.2 0 0 22.92,16.03 L 33.44,22.33 A 1.67,1.48 -40.5 0 0 34.93,22.36 Q 41.19,19.34 45.80,15.86 Q 46.17,15.58 45.71,15.42 Q 42.86,14.49 42.50,11.54 Q 46.55,12.41 49.63,15.16 A 1.17,1.10 -70.4 0 1 50.00,16.01 L 50.00,32.36 A 1.95,1.94 75.1 0 1 49.02,34.05 L 35.11,42.02 A 1.75,1.67 44.6 0 1 33.40,41.99 L 19.71,34.05 A 1.79,1.70 13.7 0 1 18.84,32.69 Q 18.24,24.63 18.87,16.08 A 2.17,2.09 78.0 0 1 19.92,14.39 L 33.70,6.52 A 1.29,1.26 43.0 0 1 34.91,6.49 Q 38.44,8.24 40.84,9.90 Q 41.53,10.38 41.50,11.21 ZM 23.02,33.09 L 32.53,38.67 Q 33.21,39.06 33.19,38.28 L 32.94,25.30 A 0.89,0.87 14.8 0 0 32.50,24.56 L 21.55,18.18 A 0.33,0.32 15.8 0 0 21.06,18.45 Q 20.96,24.07 21.00,29.82 Q 21.00,29.87 20.95,30.69 Q 20.85,32.25 22.29,32.76 Q 22.68,32.90 23.02,33.09 ZM 47.07,32.24 A 1.44,1.37 75.4 0 0 47.75,31.02 L 47.75,18.50 Q 47.75,17.76 47.10,18.14 L 36.06,24.53 A 1.11,1.06 -15.5 0 0 35.50,25.47 L 35.50,38.30 Q 35.50,38.97 36.07,38.64 L 47.07,32.24 Z"/>
<path fill="#cbf13f" d="M 41.50,11.21 L 42.50,11.54 Q 42.86,14.49 45.71,15.42 Q 46.17,15.58 45.80,15.86 Q 41.19,19.34 34.93,22.36 A 1.67,1.48 -40.5 0 1 33.44,22.33 L 22.92,16.03 A 0.31,0.31 59.7 0 1 22.92,15.49 L 33.77,9.25 A 1.51,1.45 46.1 0 1 35.31,9.31 Q 37.24,10.54 38.46,11.35 Q 40.01,12.36 41.50,11.21 Z"/>
<path fill="#feffff" d="M 54.25,18.71 L 54.25,17.29 Q 56.73,16.38 59.32,16.84 A 0.77,0.70 0.5 0 1 59.94,17.41 Q 60.26,19.08 58.00,19.00 Q 55.00,18.89 54.25,18.71 Z"/>
<rect fill="#feffff" x="62.24" y="16.76" width="11.26" height="2.24" rx="1.04"/>
<path fill="#fe9e58" d="M 23.02,33.09 Q 22.68,32.90 22.29,32.76 Q 20.85,32.25 20.95,30.69 Q 21.00,29.87 21.00,29.82 Q 20.96,24.07 21.06,18.45 A 0.33,0.32 15.8 0 1 21.55,18.18 L 32.50,24.56 A 0.89,0.87 14.8 0 1 32.94,25.30 L 33.19,38.28 Q 33.21,39.06 32.53,38.67 L 23.02,33.09 Z"/>
<path fill="#cbf13f" d="M 47.07,32.24 L 36.07,38.64 Q 35.50,38.97 35.50,38.30 L 35.50,25.47 A 1.11,1.06 -15.5 0 1 36.06,24.53 L 47.10,18.14 Q 47.75,17.76 47.75,18.50 L 47.75,31.02 A 1.44,1.37 75.4 0 1 47.07,32.24 Z"/>
<path fill="#feffff" d="M 54.25,25.21 L 54.29,23.50 Q 56.15,22.44 58.05,23.28 A 0.74,0.71 14.2 0 1 58.50,24.00 Q 58.38,25.77 56.22,25.43 Q 55.25,25.28 54.25,25.21 Z"/>
<rect fill="#feffff" x="-4.09" y="-1.11" transform="translate(69.39,24.13) rotate(-0.3)" width="8.18" height="2.22" rx="1.07"/>
<path fill="#feffff" d="M 61.20,24.86 Q 60.06,22.50 62.72,23.61 A 0.73,0.66 15.3 0 1 63.17,24.32 Q 63.02,25.40 61.93,25.37 A 0.90,0.79 76.0 0 1 61.20,24.86 Z"/>
<path fill="#feffff" d="M 54.21,31.50 L 54.25,29.54 Q 58.65,28.93 63.07,29.38 A 0.96,0.86 -8.1 0 1 63.80,29.87 Q 64.64,31.60 62.68,31.60 Q 61.51,31.60 61.45,31.60 Q 57.83,31.81 54.21,31.50 Z"/>
<path fill="#feffff" d="M 68.17,31.36 Q 66.34,32.63 66.25,30.25 A 0.82,0.81 -15.1 0 1 66.69,29.50 Q 68.70,28.45 68.61,30.57 A 1.05,1.04 -16.0 0 1 68.17,31.36 Z"/>
<path fill="#d8dfe3" d="M 76.96,47.50 Q 77.25,48.00 77.75,48.29 L 77.55,55.97 Q 77.47,59.00 74.22,59.00 L 22.00,59.04 Q 20.94,58.52 19.75,58.79 Q 13.94,59.13 8.13,59.02 Q 8.03,59.02 6.38,59.11 Q 4.49,59.22 3.34,58.01 Q 2.51,57.13 2.38,55.24 Q 2.15,51.87 2.28,47.95 A 0.53,0.52 0.6 0 1 2.81,47.44 L 76.96,47.50 ZM 43.5241,50.0138 A 0.26 0.26 0.0 0 0 43.2637,49.7543 L 36.7237,49.7657 A 0.26 0.26 0.0 0 0 36.4642,50.0262 L 36.4759,56.7262 A 0.26 0.26 0.0 0 0 36.7363,56.9857 L 43.2763,56.9743 A 0.26 0.26 0.0 0 0 43.5358,56.7138 L 43.5241,50.0138 ZM 32.81,53.26 A 1.32 1.32 0.0 0 0 31.49,51.94 A 1.32 1.32 0.0 0 0 30.17,53.26 A 1.32 1.32 0.0 0 0 31.49,54.58 A 1.32 1.32 0.0 0 0 32.81,53.26 ZM 49.13,52.26 Q 46.78,51.74 47.32,53.53 A 1.21,1.19 -85.4 0 0 47.92,54.25 Q 49.33,54.97 49.83,53.50 A 0.96,0.95 15.7 0 0 49.13,52.26 Z"/>
<path fill="#000000" d="M 43.5358,56.7138 A 0.26 0.26 0.0 0 1 43.2763,56.9743 L 36.7363,56.9857 A 0.26 0.26 0.0 0 1 36.4759,56.7262 L 36.4642,50.0262 A 0.26 0.26 0.0 0 1 36.7237,49.7657 L 43.2637,49.7543 A 0.26 0.26 0.0 0 1 43.5241,50.0138 L 43.5358,56.7138 ZM 40.30,52.18 A 0.96,0.95 10.2 0 0 39.00,53.08 Q 39.03,54.98 40.49,54.40 A 0.96,0.93 -5.5 0 0 41.08,53.71 Q 41.32,52.58 40.30,52.18 Z"/>
<circle fill="#feffff" cx="31.49" cy="53.26" r="1.32"/>
<path fill="#1173b9" d="M 40.30,52.18 Q 41.32,52.58 41.08,53.71 A 0.96,0.93 -5.5 0 1 40.49,54.40 Q 39.03,54.98 39.00,53.08 A 0.96,0.95 10.2 0 1 40.30,52.18 Z"/>
<path fill="#feffff" d="M 49.13,52.26 A 0.96,0.95 15.7 0 1 49.83,53.50 Q 49.33,54.97 47.92,54.25 A 1.21,1.19 -85.4 0 1 47.32,53.53 Q 46.78,51.74 49.13,52.26 Z"/>
<path fill="#a6b0b7" d="M 49.71,64.50 Q 39.99,65.36 30.29,64.50 Q 30.04,63.23 30.40,62.03 A 0.70,0.66 7.8 0 1 31.06,61.56 L 49.21,61.50 A 0.53,0.52 -0.0 0 1 49.74,62.02 L 49.71,64.50 Z"/>
<path fill="#d8dfe3" d="M 30.29,64.50 Q 39.99,65.36 49.71,64.50 L 49.74,69.48 A 0.52,0.51 -0.5 0 1 49.22,70.00 L 30.82,69.94 A 0.53,0.50 0.0 0 1 30.29,69.44 L 30.29,64.50 Z"/>
<path fill="#d8dfe3" d="M 49.25,76.79 L 47.75,76.79 Q 46.34,76.29 43.25,76.25 Q 33.28,76.13 23.31,76.42 A 0.76,0.73 -12.4 0 1 22.59,75.98 Q 21.88,74.31 23.03,73.24 Q 23.76,72.57 25.31,72.55 Q 39.66,72.46 54.02,72.50 Q 54.14,72.50 54.96,72.44 Q 57.19,72.28 57.58,75.04 A 1.15,1.15 89.2 0 1 56.32,76.34 Q 52.30,75.91 49.25,76.79 Z"/>
<path fill="#feffff" d="M 31.75,79.21 Q 31.06,79.55 30.44,80.00 Q 26.44,80.00 22.44,80.00 Q 22.11,79.59 21.75,79.21 Q 26.75,78.06 31.75,79.21 Z"/>
</svg>
